<svg width="24.08" height="11.744" viewBox="0 0 24.08 11.744" xmlns="http://www.w3.org/2000/svg"><g id="svgGroup" stroke-linecap="round" fill-rule="evenodd" font-size="9pt" stroke="#000" stroke-width="0.25mm" fill="black" style="stroke:#000;stroke-width:0.25mm;fill:black"><path d="M 13.52 3.376 L 13.552 3.328 Q 13.431 3.437 13.174 3.622 A 14.648 14.648 0 0 1 12.992 3.752 Q 12.592 4.032 12.128 4.352 Q 11.664 4.672 11.28 4.912 A 38.254 38.254 0 0 1 11.113 5.016 Q 10.862 5.171 10.752 5.232 L 9.792 5.728 Q 10.08 5.616 10.376 5.504 Q 10.672 5.392 10.944 5.264 L 10.688 5.408 A 4.957 4.957 0 0 1 10.545 5.482 Q 10.372 5.568 10.136 5.672 Q 9.792 5.824 9.424 5.968 Q 9.057 6.111 8.754 6.207 A 158.626 158.626 0 0 1 8.752 6.208 Q 8.523 6.28 8.385 6.307 A 1.012 1.012 0 0 1 8.304 6.32 A 0.021 0.021 0 0 1 8.301 6.32 Q 8.28 6.317 8.408 6.264 Q 8.501 6.226 8.625 6.183 A 6.416 6.416 0 0 1 8.744 6.144 A 41.1 41.1 0 0 0 8.886 6.098 Q 8.942 6.08 8.993 6.064 A 21.661 21.661 0 0 0 9.088 6.032 A 1.716 1.716 0 0 0 9.164 6.008 Q 9.249 5.98 9.36 5.935 A 5.522 5.522 0 0 0 9.376 5.928 Q 9.551 5.857 9.757 5.746 A 5.028 5.028 0 0 0 9.76 5.744 Q 8.992 6.032 8.2 6.256 A 62.724 62.724 0 0 1 6.75 6.648 A 57.283 57.283 0 0 1 6.656 6.672 Q 6.944 6.672 7.312 6.76 Q 7.68 6.848 8.032 7.024 Q 8.384 7.2 8.608 7.448 Q 8.832 7.696 8.832 8.032 A 0.954 0.954 0 0 1 8.83 8.098 Q 8.828 8.13 8.823 8.157 A 0.437 0.437 0 0 1 8.816 8.192 A 1.033 1.033 0 0 1 8.7 8.493 Q 8.561 8.742 8.272 9.011 A 3.685 3.685 0 0 1 8.232 9.048 A 5.159 5.159 0 0 1 7.701 9.465 Q 7.42 9.659 7.086 9.844 A 8.828 8.828 0 0 1 6.96 9.912 Q 6.192 10.32 5.288 10.584 Q 4.384 10.848 3.504 10.88 A 1.689 1.689 0 0 1 3.189 10.849 A 2.168 2.168 0 0 1 2.96 10.792 A 1.042 1.042 0 0 1 2.682 10.662 A 0.897 0.897 0 0 1 2.496 10.496 A 0.535 0.535 0 0 1 2.367 10.139 Q 2.367 10.065 2.384 9.984 A 0.752 0.752 0 0 1 2.483 9.745 Q 2.598 9.558 2.832 9.368 A 4.966 4.966 0 0 1 3.202 9.097 Q 3.396 8.966 3.622 8.838 A 8.487 8.487 0 0 1 3.776 8.752 Q 4.336 8.448 4.936 8.208 Q 5.536 7.968 6.072 7.816 A 7.403 7.403 0 0 1 6.37 7.738 Q 6.65 7.671 6.847 7.653 A 1.689 1.689 0 0 1 6.912 7.648 A 0.107 0.107 0 0 1 6.929 7.649 Q 6.959 7.654 6.96 7.678 A 0.04 0.04 0 0 1 6.96 7.68 Q 6.96 7.732 6.897 7.805 A 0.671 0.671 0 0 1 6.864 7.84 Q 6.768 7.936 6.688 7.968 A 5.548 5.548 0 0 0 6.448 8.04 Q 6.173 8.129 5.808 8.271 A 17.537 17.537 0 0 0 5.784 8.28 Q 5.232 8.496 4.68 8.768 Q 4.128 9.04 3.712 9.328 Q 3.522 9.455 3.422 9.546 A 0.791 0.791 0 0 0 3.376 9.592 A 0.724 0.724 0 0 0 3.336 9.639 Q 3.28 9.711 3.28 9.76 Q 3.28 9.838 3.408 9.855 A 0.453 0.453 0 0 0 3.416 9.856 A 3.271 3.271 0 0 0 3.496 9.864 Q 3.566 9.871 3.616 9.872 A 0.884 0.884 0 0 0 3.632 9.872 Q 4.086 9.845 4.634 9.693 A 7.232 7.232 0 0 0 4.816 9.64 Q 5.472 9.44 6.088 9.104 A 5.646 5.646 0 0 0 6.691 8.727 A 4.393 4.393 0 0 0 7.136 8.36 Q 7.449 8.064 7.577 7.764 A 1.117 1.117 0 0 0 7.648 7.536 A 0.206 0.206 0 0 0 7.653 7.496 Q 7.655 7.302 7.256 7.2 A 2.872 2.872 0 0 0 6.946 7.141 Q 6.619 7.095 6.167 7.089 A 10.699 10.699 0 0 0 6.016 7.088 L 5.648 7.088 Q 5.456 7.088 5.248 7.104 Q 5.115 7.06 5.105 6.933 A 0.268 0.268 0 0 1 5.104 6.912 A 0.425 0.425 0 0 1 5.119 6.796 Q 5.156 6.664 5.289 6.623 A 0.408 0.408 0 0 1 5.36 6.608 Q 6.496 6.272 7.616 5.752 Q 8.736 5.232 9.752 4.624 Q 10.768 4.016 11.568 3.424 Q 12.105 3.026 12.491 2.686 A 7.421 7.421 0 0 0 12.832 2.368 A 1.156 1.156 0 0 0 12.947 2.235 A 0.99 0.99 0 0 0 12.992 2.168 A 0.433 0.433 0 0 0 13.045 2.043 A 0.384 0.384 0 0 0 13.056 1.952 Q 13.056 1.785 12.881 1.65 A 0.909 0.909 0 0 0 12.784 1.584 Q 12.45 1.386 11.95 1.26 A 5.467 5.467 0 0 0 11.64 1.192 Q 10.928 1.056 10.192 1.056 Q 8.928 1.056 7.456 1.408 Q 5.984 1.76 4.56 2.4 A 13.278 13.278 0 0 0 2.426 3.598 A 11.985 11.985 0 0 0 1.984 3.92 Q 1.6 4.224 1.304 4.592 Q 1.008 4.96 0.912 5.424 Q 0.894 5.506 0.894 5.582 A 0.54 0.54 0 0 0 1.008 5.92 A 0.908 0.908 0 0 1 1.072 6.015 Q 1.16 6.166 1.136 6.288 A 0.115 0.115 0 0 1 1.132 6.32 Q 1.122 6.355 1.086 6.365 A 0.118 0.118 0 0 1 1.056 6.368 A 0.336 0.336 0 0 1 0.97 6.356 Q 0.892 6.335 0.797 6.28 A 1.173 1.173 0 0 1 0.784 6.272 A 2.45 2.45 0 0 1 0.56 6.064 Q 0.416 5.914 0.272 5.72 Q 0.016 5.376 0.016 4.928 A 1.541 1.541 0 0 1 0.183 4.25 Q 0.299 4.01 0.498 3.766 A 3.978 3.978 0 0 1 0.856 3.384 Q 1.626 2.658 2.793 2.019 A 13.668 13.668 0 0 1 3.008 1.904 A 22.996 22.996 0 0 1 4.936 1.146 Q 5.925 0.81 6.839 0.617 A 13.884 13.884 0 0 1 6.96 0.592 Q 8.784 0.224 10.624 0.208 A 3.23 3.23 0 0 0 10.681 0.208 Q 10.758 0.206 10.794 0.201 A 0.255 0.255 0 0 0 10.8 0.2 L 10.848 0.192 A 0.021 0.021 0 0 0 10.838 0.176 Q 10.813 0.156 10.72 0.144 Q 10.592 0.128 10.464 0.128 A 12.603 12.603 0 0 0 10.276 0.127 Q 9.778 0.127 9.235 0.165 A 19.23 19.23 0 0 0 8.104 0.28 A 15.223 15.223 0 0 0 6.284 0.636 A 18.139 18.139 0 0 0 5.424 0.88 Q 6.48 0.544 7.6 0.312 A 15.433 15.433 0 0 1 9.591 0.03 A 14.102 14.102 0 0 1 9.792 0.016 Q 9.936 0 10.088 0 L 10.384 0 Q 11.216 0 11.952 0.16 A 3.207 3.207 0 0 1 12.545 0.347 A 2.373 2.373 0 0 1 13.16 0.728 Q 13.632 1.136 13.632 1.872 A 1.776 1.776 0 0 1 13.781 2.108 Q 13.904 2.345 13.904 2.56 A 0.898 0.898 0 0 1 13.83 2.905 Q 13.776 3.037 13.681 3.174 A 2.187 2.187 0 0 1 13.52 3.376 Z M 19.344 0.256 L 19.344 0.208 A 0.139 0.139 0 0 1 19.351 0.161 Q 19.373 0.099 19.462 0.096 A 0.276 0.276 0 0 1 19.472 0.096 A 0.142 0.142 0 0 1 19.489 0.097 Q 19.52 0.101 19.585 0.117 A 3.544 3.544 0 0 1 19.632 0.128 Q 19.757 0.175 19.951 0.268 A 8.124 8.124 0 0 1 19.96 0.272 Q 20.16 0.368 20.352 0.496 Q 20.912 0.496 21.552 0.624 Q 22.192 0.752 22.768 1.008 Q 23.344 1.264 23.712 1.648 Q 24.08 2.032 24.08 2.544 A 1.452 1.452 0 0 1 24.016 2.962 A 1.991 1.991 0 0 1 23.888 3.28 Q 23.936 3.488 23.936 3.696 Q 23.936 4.192 23.728 4.608 A 2.882 2.882 0 0 1 23.346 5.181 A 3.461 3.461 0 0 1 23.152 5.392 Q 23.328 5.232 23.496 5.016 Q 23.656 4.81 23.853 4.436 A 7.989 7.989 0 0 0 23.872 4.4 A 3.187 3.187 0 0 1 23.766 4.684 Q 23.706 4.824 23.638 4.937 A 1.419 1.419 0 0 1 23.528 5.096 Q 23.328 5.344 23.136 5.52 A 3.151 3.151 0 0 1 22.523 6.002 A 2.863 2.863 0 0 1 22.336 6.104 Q 21.904 6.32 21.232 6.64 A 3.029 3.029 0 0 1 21.106 6.687 Q 21.044 6.708 20.974 6.731 A 6.701 6.701 0 0 1 20.824 6.776 Q 20.576 6.848 20.288 6.928 Q 21.088 6.688 21.848 6.304 Q 22.608 5.92 23.12 5.424 L 22.992 5.536 Q 22.48 5.984 22.064 6.176 A 73.841 73.841 0 0 1 21.92 6.242 Q 21.684 6.351 21.598 6.387 A 1.388 1.388 0 0 1 21.568 6.4 Q 21.296 6.5 20.87 6.639 A 38.544 38.544 0 0 1 20.768 6.672 Q 20.272 6.832 19.824 6.96 Q 19.455 7.065 19.271 7.117 A 17.341 17.341 0 0 1 19.2 7.136 L 19.168 7.152 Q 19.328 7.136 19.488 7.112 Q 19.648 7.088 19.808 7.056 L 19.904 7.024 L 19.888 7.024 A 0.036 0.036 0 0 0 19.88 7.025 Q 19.859 7.031 19.808 7.056 Q 19.152 7.2 18.568 7.28 A 9.677 9.677 0 0 1 18.083 7.335 Q 17.862 7.354 17.665 7.358 A 5.347 5.347 0 0 1 17.536 7.36 A 2.631 2.631 0 0 1 17.447 7.359 Q 17.268 7.353 17.216 7.32 A 0.262 0.262 0 0 1 17.139 7.247 A 0.253 0.253 0 0 1 17.12 7.216 A 0.12 0.12 0 0 1 17.145 7.143 Q 17.173 7.106 17.232 7.072 A 0.615 0.615 0 0 0 17.262 7.056 A 0.447 0.447 0 0 0 17.288 7.04 Q 17.312 7.024 17.344 7.008 A 11.453 11.453 0 0 0 18.187 6.785 A 14.808 14.808 0 0 0 18.888 6.552 Q 19.712 6.256 20.512 5.848 A 11.371 11.371 0 0 0 21.518 5.271 A 9.599 9.599 0 0 0 21.96 4.968 Q 22.562 4.529 22.944 4.063 A 3.759 3.759 0 0 0 23 3.992 A 2.253 2.253 0 0 0 23.223 3.648 Q 23.334 3.435 23.372 3.226 A 1.213 1.213 0 0 0 23.392 3.008 A 0.954 0.954 0 0 0 23.143 2.365 A 1.38 1.38 0 0 0 23 2.224 A 3.006 3.006 0 0 0 22.514 1.888 A 4.062 4.062 0 0 0 22.024 1.656 Q 21.44 1.424 20.88 1.312 Q 20.718 1.489 20.373 1.896 A 65.386 65.386 0 0 0 20.312 1.968 Q 20.042 2.287 19.716 2.689 A 73.038 73.038 0 0 0 19.408 3.072 Q 18.896 3.712 18.328 4.432 Q 17.76 5.152 17.216 5.856 Q 16.912 6.256 16.56 6.744 Q 16.208 7.232 15.88 7.736 Q 15.552 8.24 15.344 8.688 A 2.943 2.943 0 0 0 15.23 8.968 Q 15.136 9.241 15.136 9.456 Q 15.136 9.566 15.159 9.646 A 0.381 0.381 0 0 0 15.184 9.712 A 2.714 2.714 0 0 1 15.423 9.76 Q 15.802 9.856 15.872 10.029 A 0.218 0.218 0 0 1 15.888 10.112 A 0.205 0.205 0 0 1 15.844 10.236 Q 15.777 10.326 15.608 10.408 Q 15.328 10.544 14.864 10.544 Q 14.752 10.544 14.64 10.536 Q 14.528 10.528 14.4 10.512 Q 14.103 10.46 13.957 10.279 A 0.561 0.561 0 0 1 13.896 10.184 Q 13.76 9.92 13.76 9.616 Q 13.76 9.312 13.84 9.072 A 1.929 1.929 0 0 1 13.913 8.875 Q 13.998 8.675 14.15 8.402 A 10.372 10.372 0 0 1 14.304 8.136 Q 14.672 7.52 15.2 6.744 Q 15.728 5.968 16.32 5.128 A 101.637 101.637 0 0 1 17.47 3.529 A 95.83 95.83 0 0 1 17.488 3.504 A 176.87 176.87 0 0 1 18.003 2.806 Q 18.247 2.478 18.466 2.187 A 105.294 105.294 0 0 1 18.528 2.104 Q 18.883 1.632 19.107 1.334 A 271.323 271.323 0 0 0 19.232 1.168 A 2.753 2.753 0 0 0 18.902 1.477 A 2.243 2.243 0 0 0 18.712 1.72 A 1.741 1.741 0 0 1 18.62 1.844 Q 18.525 1.961 18.44 2.012 A 0.278 0.278 0 0 1 18.352 2.048 Q 18.524 1.848 18.798 1.532 A 212.965 212.965 0 0 1 18.864 1.456 Q 19.074 1.215 19.18 1.001 A 1.136 1.136 0 0 0 19.264 0.784 A 1.039 1.039 0 0 0 19.119 0.759 A 1.391 1.391 0 0 0 18.976 0.752 L 18.64 0.752 Q 17.888 0.752 16.816 0.88 A 22.621 22.621 0 0 0 15.279 1.116 A 19.629 19.629 0 0 0 14.784 1.216 Q 14.629 1.247 14.266 1.375 A 13.833 13.833 0 0 0 14.24 1.384 A 12.107 12.107 0 0 0 13.884 1.517 Q 13.642 1.611 13.368 1.728 Q 12.88 1.936 12.4 2.208 A 5.187 5.187 0 0 0 11.928 2.508 A 4.001 4.001 0 0 0 11.576 2.792 A 1.919 1.919 0 0 0 11.355 3.027 Q 11.243 3.169 11.18 3.315 A 1.041 1.041 0 0 0 11.136 3.44 A 0.684 0.684 0 0 1 11.177 3.541 Q 11.196 3.601 11.199 3.657 A 0.401 0.401 0 0 1 11.2 3.68 Q 11.2 3.904 10.976 3.904 A 0.395 0.395 0 0 1 10.818 3.868 Q 10.695 3.815 10.56 3.68 A 0.736 0.736 0 0 1 10.367 3.331 Q 10.338 3.214 10.336 3.075 A 1.407 1.407 0 0 1 10.336 3.056 Q 10.336 2.848 10.4 2.656 Q 10.48 2.384 10.64 2.152 Q 10.8 1.92 11.008 1.712 Q 11.536 1.424 12.056 1.136 Q 12.576 0.848 13.264 0.624 A 9.33 9.33 0 0 1 14.108 0.382 A 12.117 12.117 0 0 1 14.84 0.232 A 10.152 10.152 0 0 1 15.959 0.103 A 12.649 12.649 0 0 1 16.736 0.08 Q 17.344 0.08 18.032 0.144 Q 18.72 0.208 19.456 0.352 Q 19.536 0.375 19.559 0.357 A 0.025 0.025 0 0 0 19.568 0.337 A 0.021 0.021 0 0 0 19.558 0.32 Q 19.533 0.3 19.44 0.288 Q 19.04 0.208 18.64 0.152 Q 18.24 0.096 17.856 0.08 Q 18.24 0.096 18.616 0.136 Q 18.992 0.176 19.344 0.256 Z M 1.136 10.608 L 2.496 8.992 A 8.79 8.79 0 0 1 2.553 8.932 Q 2.737 8.739 2.767 8.736 A 0.009 0.009 0 0 1 2.768 8.736 A 0.023 0.023 0 0 1 2.774 8.737 Q 2.784 8.74 2.784 8.752 A 0.075 0.075 0 0 1 2.777 8.78 Q 2.759 8.825 2.688 8.896 Q 2.336 9.328 1.928 9.832 Q 1.52 10.336 1.152 10.832 A 7.983 7.983 0 0 0 0.87 11.236 Q 0.74 11.437 0.639 11.622 A 4.307 4.307 0 0 0 0.576 11.744 Q 0.343 11.548 0.209 11.357 A 1.249 1.249 0 0 1 0.136 11.24 Q 0.011 11.012 0.001 10.804 A 0.748 0.748 0 0 1 0 10.768 A 0.776 0.776 0 0 1 0.017 10.611 A 1.01 1.01 0 0 1 0.048 10.496 A 2.469 2.469 0 0 1 0.151 10.25 Q 0.295 9.945 0.568 9.528 A 16.965 16.965 0 0 1 0.945 8.977 Q 1.143 8.699 1.372 8.396 A 29.255 29.255 0 0 1 1.528 8.192 Q 2.096 7.456 2.744 6.672 Q 3.392 5.888 4.016 5.144 Q 4.64 4.4 5.16 3.8 Q 5.558 3.341 5.83 3.017 A 30.352 30.352 0 0 0 5.984 2.832 Q 5.856 2.896 5.776 2.896 A 0.125 0.125 0 0 1 5.753 2.894 Q 5.714 2.887 5.712 2.852 A 0.067 0.067 0 0 1 5.712 2.848 Q 5.712 2.796 5.775 2.723 A 0.671 0.671 0 0 1 5.808 2.688 A 20.188 20.188 0 0 1 5.933 2.53 Q 5.983 2.469 6.027 2.414 A 9.939 9.939 0 0 1 6.112 2.312 L 6.24 2.16 Q 6.336 2.128 6.568 2.232 A 3.093 3.093 0 0 1 6.821 2.361 A 4.09 4.09 0 0 1 7.056 2.504 A 2.608 2.608 0 0 1 7.283 2.671 A 1.909 1.909 0 0 1 7.48 2.856 Q 7.648 3.04 7.584 3.168 Q 7.04 3.696 6.352 4.4 Q 5.664 5.104 4.912 5.92 Q 4.16 6.736 3.424 7.592 Q 2.688 8.448 2.048 9.272 Q 1.408 10.096 0.944 10.816 A 0.571 0.571 0 0 1 0.985 10.762 A 0.73 0.73 0 0 1 1.024 10.72 L 1.136 10.608 Z M 13.376 0.496 Q 14.112 0.272 14.912 0.152 A 11.044 11.044 0 0 1 16.251 0.037 A 12.57 12.57 0 0 1 16.592 0.032 Q 16.8 0.032 17.016 0.04 Q 17.232 0.048 17.44 0.064 A 5.62 5.62 0 0 1 17.153 0.057 A 6.277 6.277 0 0 1 17.144 0.056 Q 16.992 0.048 16.848 0.048 A 15.569 15.569 0 0 0 15.522 0.103 A 14.049 14.049 0 0 0 15.336 0.12 Q 14.779 0.175 14.348 0.254 A 7.362 7.362 0 0 0 14.096 0.304 Q 13.936 0.352 13.752 0.392 Q 13.568 0.432 13.376 0.496 Z M 5.008 1.024 A 18.067 18.067 0 0 0 4.742 1.112 A 20.109 20.109 0 0 0 3.28 1.672 A 16.672 16.672 0 0 0 3.252 1.684 A 17.972 17.972 0 0 0 1.52 2.544 A 2.013 2.013 0 0 0 1.448 2.589 A 2.537 2.537 0 0 0 1.352 2.656 Q 1.271 2.715 1.292 2.72 A 0.02 0.02 0 0 0 1.296 2.72 L 1.312 2.72 Q 1.328 2.72 1.344 2.704 Q 1.776 2.48 2.192 2.28 A 28.277 28.277 0 0 1 2.205 2.274 A 26.69 26.69 0 0 1 3.008 1.904 Q 3.472 1.664 3.968 1.432 Q 4.464 1.2 5.008 1.024 Z M 13.681 3.174 A 2.187 2.187 0 0 1 13.52 3.376 A 1.953 1.953 0 0 1 13.437 3.467 A 2.419 2.419 0 0 1 13.296 3.6 Q 13.168 3.712 13.04 3.84 L 12.96 3.904 L 12.512 4.288 Q 12.208 4.544 11.856 4.752 Q 11.504 4.96 11.12 5.168 Q 11.648 4.864 12.136 4.528 A 12.969 12.969 0 0 0 12.481 4.283 Q 12.649 4.159 12.794 4.042 A 7.029 7.029 0 0 0 12.96 3.904 A 6.519 6.519 0 0 0 12.978 3.891 Q 13.015 3.863 13.027 3.852 A 0.084 0.084 0 0 0 13.032 3.848 L 13.04 3.84 Q 13.216 3.696 13.336 3.576 A 4.916 4.916 0 0 0 13.347 3.565 Q 13.422 3.489 13.475 3.43 A 1.493 1.493 0 0 0 13.52 3.376 M 11.056 1.68 A 3.361 3.361 0 0 1 11.707 1.197 A 3.877 3.877 0 0 1 11.88 1.104 Q 12.352 0.864 12.848 0.672 Q 12.4 0.848 11.984 1.08 M 12.919 0.648 A 0.024 0.024 0 0 1 12.917 0.65 A 0.012 0.012 0 0 0 12.92 0.646 A 0.006 0.006 0 0 0 12.92 0.644 Q 12.92 0.64 12.912 0.64 L 12.928 0.64 L 12.912 0.64 L 12.912 0.656 L 12.904 0.656 L 12.896 0.656 L 12.88 0.672 L 12.864 0.672 L 12.848 0.672 Q 12.4 0.848 11.984 1.08 Q 11.568 1.312 11.184 1.584 L 11.056 1.68 M 13.232 0.544 L 13.216 0.544 L 13.2 0.544 L 13.184 0.56 L 13.168 0.56 L 13.16 0.56 Q 13.153 0.56 13.138 0.574 A 0.168 0.168 0 0 0 13.136 0.576 A 0.141 0.141 0 0 1 13.143 0.57 Q 13.154 0.56 13.16 0.56 L 13.168 0.56 L 13.184 0.56 L 13.2 0.544 L 13.216 0.544 L 13.232 0.544 L 13.248 0.528 L 13.28 0.528 L 13.248 0.528 L 13.256 0.528 Q 13.25 0.528 13.239 0.538 A 0.141 0.141 0 0 0 13.232 0.544 Z M 11.008 1.712 L 10.944 1.744 L 11.056 1.68 L 11.008 1.712 Z M 5.062 1.007 Q 5.072 1.004 5.072 0.992 L 5.088 0.992 L 5.104 0.992 L 5.136 0.976 L 5.152 0.976 L 5.168 0.96 L 5.152 0.976 L 5.136 0.976 Q 5.12 0.976 5.104 0.992 L 5.088 0.992 L 5.072 0.992 M 5.2 0.96 L 5.216 0.944 L 5.232 0.944 L 5.248 0.944 L 5.28 0.928 Q 5.264 0.928 5.248 0.944 L 5.232 0.944 L 5.216 0.944 L 5.2 0.96 Z M 5.056 1.008 L 5.008 1.024 Q 5.033 1.012 5.048 1.009 A 0.045 0.045 0 0 1 5.056 1.008 A 0.023 0.023 0 0 0 5.062 1.007 Q 5.072 1.004 5.072 0.992 L 5.056 1.008 Z M 13.104 0.576 L 13.12 0.576 L 13.136 0.576 L 13.12 0.576 L 13.104 0.576 L 13.088 0.592 L 13.072 0.592 L 13.088 0.592 L 13.096 0.592 A 0.006 0.006 0 0 0 13.101 0.589 Q 13.103 0.587 13.104 0.581 A 0.048 0.048 0 0 0 13.104 0.576 Z M 5.216 0.944 L 5.2 0.96 L 5.168 0.96 L 5.2 0.96 M 12.896 0.656 A 0.023 0.023 0 0 0 12.89 0.657 Q 12.88 0.66 12.88 0.672 L 12.864 0.672 L 12.848 0.672 M 12.864 0.672 Q 12.88 0.672 12.864 0.672 M 12.912 0.656 L 12.904 0.656 L 12.896 0.656 M 12.915 0.653 Q 12.916 0.652 12.917 0.65 M 12.915 0.653 A 0.073 0.073 0 0 1 12.912 0.656" vector-effect="non-scaling-stroke"/></g></svg>